PathFileType	4	(x/y/z)	S01_PSF_T09.trc
DataRate	CameraRate	NumFrames	NumMarkers	Units	OrigDataRate	OrigDataStartFrame	OrigNumFrames
240	240	9	51	mm	240	252	402
Frame#	Time	Sternum			R.Acromium			L.Acromium			Top.Head			R.ASIS			L.ASIS			R.PSIS			L.PSIS			R.Great.Tro			L.Great.Tro			R.Iliac.Crest			L.Iliac.Crest			V.Sacral			R.Thigh.Upper.Post			R.Thigh.Lower.Ant			R.Thigh.Lower.Post			R.Thigh.Upper.Ant			R.Knee.Lat			R.Knee.Med			R.Shank.Upper.Post			R.Shank.Lower.Ant			R.Shank.Lower.Post			R.Shank.Upper.Ant			R.Ankle.Lat			R.Ankle.Med			R.Heel.Upper			R.Heel.Med			R.Heel.Lat			R.Toe.Lat			R.Toe.Med			R.Toe.Tip			L.Thigh.Upper.Post			L.Thigh.Lower.Ant			L.Thigh.Lower.Post			L.Thigh.Upper.Ant			L.Knee.Lat			L.Knee.Med			L.Shank.Upper.Post			L.Shank.Lower.Ant			L.Shank.Lower.Post			L.Shank.Upper.Ant			L.Ankle.Lat			L.Ankle.Med			L.Heel.Upper			L.Heel.Med			L.Heel.Lat			L.Toe.Lat			L.Toe.Med			L.Toe.Tip			Cervical.Spine			Back			
		X1	Y1	Z1	X2	Y2	Z2	X3	Y3	Z3	X4	Y4	Z4	X5	Y5	Z5	X6	Y6	Z6	X7	Y7	Z7	X8	Y8	Z8	X9	Y9	Z9	X10	Y10	Z10	X11	Y11	Z11	X12	Y12	Z12	X13	Y13	Z13	X14	Y14	Z14	X15	Y15	Z15	X16	Y16	Z16	X17	Y17	Z17	X18	Y18	Z18	X19	Y19	Z19	X20	Y20	Z20	X21	Y21	Z21	X22	Y22	Z22	X23	Y23	Z23	X24	Y24	Z24	X25	Y25	Z25	X26	Y26	Z26	X27	Y27	Z27	X28	Y28	Z28	X29	Y29	Z29	X30	Y30	Z30	X31	Y31	Z31	X32	Y32	Z32	X33	Y33	Z33	X34	Y34	Z34	X35	Y35	Z35	X36	Y36	Z36	X37	Y37	Z37	X38	Y38	Z38	X39	Y39	Z39	X40	Y40	Z40	X41	Y41	Z41	X42	Y42	Z42	X43	Y43	Z43	X44	Y44	Z44	X45	Y45	Z45	X46	Y46	Z46	X47	Y47	Z47	X48	Y48	Z48	X49	Y49	Z49	X50	Y50	Z50	X51	Y51	Z51	

252	1.0458	1.2962	1247.6	325.24	-95.266	1494.7	514.86	-140.86	1517.5	190.89	-108.61	1826	353.91	-46.135	998.21	488.56	-43.482	1004.4	219.71	-285.4	1037.8	386.16	-285.6	1028.9	283.95	-136.44	950.35	563.21	-140.22	947.95	138.19	-139.27	1091.8	551.88	-159.73	1081.7	146.86	-297.53	996.52	334.07	-232.2	661.43	525.08	-182.88	575.73	497.28	-251.47	576.57	503.97	-159.21	661.23	519.76	-261.09	507.53	497.08	-241.48	512.59	350.77	-382.89	385.62	506.33	-358.42	284.81	465.09	-415.18	323.38	490.63	-329.38	350.19	486.04	-494.37	128.56	444.05	-457.48	134.95	354.19	-568.58	118.22	381.96	-557.63	89.234	350.82	-564.56	83.692	414.82	-384.96	32.947	475.85	-348.64	41.964	352.67	-284.37	47.276	408.6	-64.289	667.18	165.81	40.647	633.16	165.43	-21.659	589.33	186.68	-10.963	710.87	143.54	59.437	531.6	177.86	78.482	542.83	321.9	61.094	384.42	163.39	152.8	325.56	186.39	91.847	312.67	168	123.69	396.34	177.62	172.57	109.43	202.32	192.58	132.79	299.33	116.42	57.829	252.62	137.76	40.799	287.7	135.24	36.429	224	332.51	96.418	188.28	351.45	124.36	307.61	405.23	155.5	253.56	-205.05	1565.1	368.91	-295.94	1256	380.82
253	1.05	7.5095	1247.1	324.68	-89.511	1494.3	513.98	-134.89	1516.8	189.87	-102.64	1825.5	352.67	-40.043	997.65	488.39	-36.855	1004	219.52	-279.13	1037.1	385.42	-279.11	1028.3	283.17	-130.52	949.7	562.81	-133.22	947.51	137.79	-133.28	1091.3	551.41	-153.09	1081.1	146.28	-291.12	995.85	333.26	-226.3	660.95	524.98	-176.92	575.17	497.58	-245.52	576.04	504.07	-153.29	660.74	519.87	-255.3	507	497.35	-235	511.67	351.12	-378.43	386.43	506.4	-355.05	285.27	465.53	-411.4	324.55	490.83	-325.32	350.35	486.38	-492.77	130.4	444.54	-455.67	136.51	354.8	-567.02	121.17	382.43	-556.44	92.229	351.15	-563.5	86.448	415.13	-384.82	32.985	475.86	-348.5	42.004	352.77	-284.11	47.079	408.6	-57.262	666.83	165.98	47.679	632.92	166.17	-14.722	589.03	187.04	-3.8738	710.61	144.05	66.38	531.24	178.55	84.81	542.76	322.27	67.077	384.09	164	158.04	324.36	187.56	97.133	312.07	168.73	129.65	395.42	178.72	175.29	108.5	203.09	195.09	131.11	300.35	117.95	58.07	253.06	138.89	40.567	288.14	136.49	36.447	224.43	334.88	93.124	189.88	353.76	120.28	309.4	408.32	150.63	255.73	-199.22	1564.5	367.83	-289.92	1255.4	380.05
254	1.0542	13.754	1246.8	324.11	-83.756	1494	513.09	-128.9	1516.1	188.83	-96.67	1825.1	351.42	-33.916	997.13	488.18	-30.203	1003.6	219.31	-272.82	1036.5	384.69	-272.58	1027.7	282.38	-124.55	949.07	562.4	-126.19	947.15	137.37	-127.2	1090.8	550.92	-146.4	1080.5	145.67	-284.68	995.23	332.45	-220.29	660.47	524.89	-170.82	574.62	497.92	-239.42	575.51	504.21	-147.26	660.28	519.99	-249.34	506.47	497.66	-228.36	510.74	351.51	-373.81	387.28	506.5	-351.55	285.78	466.01	-407.47	325.77	491.06	-321.12	350.55	486.76	-491.04	132.35	445.06	-453.73	138.17	355.45	-565.31	124.28	382.93	-555.12	95.403	351.51	-562.32	89.374	415.47	-384.66	33.038	475.87	-348.36	42.061	352.86	-283.83	46.883	408.59	-50.244	666.55	166.11	54.691	632.72	166.88	-7.804	588.78	187.36	3.2014	710.4	144.54	73.334	530.95	179.21	91.089	542.73	322.63	73.067	383.85	164.55	163.26	323.23	188.67	102.4	311.56	169.37	135.61	394.56	179.78	177.87	107.63	203.77	197.5	129.5	301.28	119.35	58.417	253.42	139.84	40.443	288.5	137.57	36.55	224.79	337.06	89.774	191.34	355.94	116.14	311.03	411.29	145.64	257.72	-193.38	1564	366.72	-283.87	1254.8	379.26
255	1.0583	20.025	1246.5	323.53	-77.998	1493.7	512.19	-122.91	1515.4	187.78	-90.704	1824.7	350.14	-27.757	996.65	487.95	-23.531	1003.4	219.1	-266.48	1035.9	383.95	-266.02	1027.3	281.59	-118.53	948.47	561.98	-119.13	946.86	136.94	-121.02	1090.4	550.42	-139.67	1080	145.04	-278.21	994.69	331.63	-214.15	660	524.83	-164.56	574.09	498.3	-233.17	574.97	504.38	-141.1	659.84	520.14	-243.2	505.94	498.03	-221.54	509.79	351.96	-369.02	388.17	506.64	-347.9	286.35	466.54	-403.38	327.06	491.34	-316.77	350.79	487.18	-489.17	134.4	445.62	-451.63	139.91	356.14	-563.43	127.57	383.46	-553.65	98.764	351.89	-561.02	92.476	415.82	-384.49	33.109	475.88	-348.2	42.141	352.96	-283.54	46.685	408.59	-43.237	666.35	166.2	61.68	632.57	167.53	-0.9054	588.59	187.64	10.261	710.24	144.98	80.296	530.74	179.84	97.313	542.74	322.98	79.066	383.71	165.01	168.46	322.17	189.71	107.66	311.14	169.93	141.57	393.79	180.77	180.32	106.82	204.35	199.82	127.98	302.1	120.65	58.863	253.7	140.66	40.424	288.77	138.51	36.732	225.07	339.07	86.398	192.63	358.01	111.99	312.47	414.13	140.55	259.51	-187.53	1563.5	365.6	-277.8	1254.3	378.45
256	1.0625	26.318	1246.3	322.94	-72.238	1493.5	511.28	-116.9	1514.8	186.71	-84.741	1824.4	348.85	-21.571	996.22	487.69	-16.847	1003.2	218.88	-260.11	1035.4	383.21	-259.44	1026.8	280.8	-112.48	947.91	561.54	-112.05	946.65	136.51	-114.76	1090.1	549.91	-132.91	1079.6	144.39	-271.72	994.2	330.81	-207.89	659.53	524.8	-158.15	573.57	498.73	-226.77	574.42	504.6	-134.82	659.43	520.31	-236.88	505.4	498.45	-214.53	508.83	352.47	-364.05	389.1	506.81	-344.1	286.97	467.11	-399.1	328.41	491.65	-312.26	351.06	487.65	-487.16	136.57	446.21	-449.38	141.74	356.87	-561.37	131.04	384.03	-552.02	102.32	352.29	-559.57	95.766	416.19	-384.3	33.202	475.9	-348.02	42.25	353.07	-283.24	46.481	408.57	-36.24	666.22	166.26	68.65	632.47	168.13	5.9759	588.46	187.88	17.303	710.15	145.38	87.267	530.61	180.42	103.48	542.8	323.31	85.074	383.66	165.39	173.64	321.2	190.68	112.91	310.82	170.4	147.52	393.1	181.7	182.66	106.09	204.85	202.07	126.55	302.81	121.86	59.396	253.91	141.37	40.504	288.97	139.34	36.984	225.29	340.93	83.024	193.76	359.98	107.85	313.74	416.86	135.44	261.09	-181.68	1563.1	364.46	-271.71	1253.8	377.63
257	1.0667	32.629	1246.2	322.34	-66.474	1493.4	510.38	-110.88	1514.3	185.63	-78.783	1824.2	347.55	-15.362	995.85	487.41	-10.156	1003	218.65	-253.71	1034.9	382.47	-252.85	1026.5	280.02	-106.38	947.38	561.09	-104.96	946.51	136.06	-108.41	1089.9	549.39	-126.11	1079.3	143.73	-265.21	993.79	329.99	-201.5	659.06	524.79	-151.57	573.08	499.22	-220.2	573.87	504.87	-128.42	659.06	520.52	-230.37	504.87	498.94	-207.33	507.85	353.04	-358.87	390.06	507.03	-340.14	287.65	467.74	-394.64	329.82	492	-307.58	351.36	488.17	-484.98	138.86	446.84	-446.95	143.67	357.64	-559.1	134.71	384.63	-550.22	106.08	352.71	-557.97	99.251	416.58	-384.08	33.325	475.92	-347.82	42.395	353.18	-282.91	46.27	408.56	-29.252	666.17	166.26	75.601	632.45	168.66	12.843	588.39	188.05	24.329	710.13	145.72	94.244	530.56	180.94	109.59	542.91	323.61	91.083	383.71	165.68	178.8	320.31	191.56	118.15	310.6	170.77	153.46	392.49	182.55	184.89	105.43	205.25	204.25	125.22	303.41	123.02	60.003	254.06	141.99	40.677	289.11	140.09	37.295	225.45	342.65	79.68	194.72	361.85	103.76	314.82	419.47	130.33	262.45	-175.81	1562.8	363.31	-265.61	1253.4	376.8
258	1.0708	38.953	1246.2	321.74	-60.705	1493.3	509.47	-104.84	1513.9	184.55	-72.829	1824	346.23	-9.1352	995.53	487.09	-3.4651	1003	218.41	-247.29	1034.5	381.75	-246.26	1026.2	279.25	-100.24	946.9	560.63	-97.878	946.46	135.6	-101.98	1089.7	548.85	-119.3	1079	143.05	-258.69	993.44	329.18	-194.99	658.6	524.81	-144.83	572.6	499.77	-213.47	573.32	505.19	-121.88	658.71	520.76	-223.66	504.33	499.49	-199.93	506.85	353.68	-353.49	391.06	507.3	-336	288.39	468.41	-389.97	331.28	492.41	-302.7	351.7	488.74	-482.63	141.27	447.5	-444.34	145.69	358.45	-556.62	138.56	385.26	-548.22	110.05	353.16	-556.19	102.94	416.99	-383.85	33.482	475.94	-347.59	42.584	353.3	-282.56	46.048	408.54	-22.272	666.21	166.21	82.536	632.48	169.11	19.699	588.39	188.16	31.338	710.17	146.01	101.23	530.58	181.41	115.66	543.07	323.89	97.085	383.85	165.88	183.92	319.5	192.35	123.36	310.46	171.04	159.38	391.96	183.31	187.01	104.85	205.56	206.37	124.01	303.91	124.12	60.67	254.15	142.54	40.933	289.18	140.77	37.656	225.56	344.25	76.393	195.52	363.64	99.768	315.73	421.96	125.27	263.6	-169.94	1562.6	362.15	-259.5	1253	375.96
259	1.075	45.285	1246.2	321.13	-54.931	1493.3	508.56	-98.791	1513.5	183.46	-66.882	1823.9	344.9	-2.8968	995.27	486.76	3.2203	1003	218.16	-240.86	1034.2	381.03	-239.67	1026.1	278.49	-94.073	946.46	560.16	-90.813	946.48	135.14	-95.486	1089.5	548.3	-112.46	1078.9	142.37	-252.16	993.17	328.37	-188.33	658.14	524.87	-137.92	572.15	500.39	-206.57	572.76	505.55	-115.21	658.4	521.04	-216.75	503.79	500.11	-192.31	505.82	354.39	-347.89	392.1	507.62	-331.67	289.18	469.13	-385.09	332.8	492.86	-297.62	352.07	489.36	-480.09	143.8	448.21	-441.53	147.81	359.29	-553.9	142.62	385.94	-546.02	114.23	353.63	-554.23	106.84	417.42	-383.59	33.682	475.97	-347.33	42.826	353.42	-282.18	45.812	408.53	-15.299	666.34	166.1	89.458	632.59	169.5	26.546	588.46	188.2	38.33	710.29	146.23	108.21	530.69	181.82	121.68	543.29	324.13	103.07	384.06	165.98	189	318.77	193.05	128.53	310.41	171.21	165.27	391.5	183.99	189.03	104.33	205.8	208.42	122.9	304.3	125.18	61.382	254.18	143.05	41.259	289.21	141.39	38.057	225.62	345.72	73.187	196.17	365.34	95.884	316.46	424.33	120.31	264.55	-164.05	1562.4	360.99	-253.37	1252.7	375.11
260	1.0792	51.618	1246.3	320.51	-49.149	1493.4	507.65	-92.729	1513.2	182.37	-60.942	1823.8	343.56	3.3485	995.08	486.39	9.894	1003	217.9	-234.42	1034	380.32	-233.09	1026	277.74	-87.871	946.06	559.67	-83.78	946.59	134.68	-88.935	1089.5	547.75	-105.62	1078.8	141.69	-245.63	992.97	327.57	-181.55	657.68	524.97	-130.83	571.71	501.07	-199.49	572.18	505.97	-108.41	658.12	521.37	-209.62	503.24	500.8	-184.48	504.77	355.18	-342.05	393.16	508	-327.13	290.02	469.91	-379.98	334.38	493.37	-292.33	352.46	490.05	-477.36	146.46	448.95	-438.53	150.03	360.17	-550.93	146.88	386.66	-543.6	118.63	354.14	-552.07	110.96	417.87	-383.29	33.933	476	-347.01	43.131	353.55	-281.78	45.559	408.51	-8.3344	666.54	165.94	96.365	632.76	169.8	33.385	588.59	188.17	45.304	710.47	146.39	115.18	530.87	182.17	127.69	543.56	324.32	109.01	384.35	165.99	194.03	318.11	193.65	133.65	310.44	171.29	171.12	391.11	184.58	190.94	103.88	205.97	210.41	121.91	304.61	126.2	62.127	254.17	143.52	41.646	289.19	141.97	38.489	225.65	347.08	70.085	196.67	366.95	92.134	317.04	426.56	115.47	265.32	-158.16	1562.3	359.82	-247.24	1252.5	374.25
